/* XPM */
static char *fa163b7fef4a4c96c3b3df87bdbe54ee4KofmHh3LUl0V8EW[] = {
/* columns rows colors chars-per-pixel */
"80 80 19 1 ",
"  c #3A4041",
". c #6D1823",
"X c #D64F5D",
"o c #190F20",
"O c #C2360F",
"+ c #D48A19",
"@ c #EFECEC",
"# c #F8F8F8",
"$ c #CEB7B9",
"% c #5B5168",
"& c #C9B8BD",
"* c #0C3F0F",
"= c #63AD45",
"- c #0F5314",
"; c #116116",
": c #7EC262",
"> c #85BF13",
", c #67940F",
"< c white",
/* pixels */
"                                                                                ",
"                                                                                ",
"                                                                                ",
"                                                                                ",
"                                                                                ",
"                                                                                ",
"                                                                                ",
"                                                                                ",
"                                                                                ",
"                                                                                ",
"                                                                                ",
"                                                                                ",
"                                       ........                                 ",
"                                      ..........                                ",
"                                     X.....oooo..                               ",
"                                    X........ooo..                              ",
"                                   X..........ooo..                             ",
"                                   Xo.....o....o...                             ",
"                                   Xo.....oo..oo  .                             ",
"                                   Xoo...ooo.ooo  .                             ",
"                      O            Xoooooooo..ooo .                             ",
"                                   Xoooooooo...oo .                             ",
"                      +           XXoooooooo...ooo                              ",
"                                  Xoo@@o@@ooo...oo                              ",
"                                  Xooooooooooo..ooo                             ",
"                        O         Xooooooooooo..ooo                             ",
"                        +         Xooooooooooo..ooo                             ",
"                       O         XX.ooooooooo..ooooo                            ",
"                       +O        X..oooooooo...oo..oo                           ",
"                       O+O      oX...oooooo....oo....                           ",
"                      OO++O    Xoo....oooo....oo......                          ",
"                      O+#+O   XX.oo...ooo....oo........                         ",
"                      O+##O  oX...oo..o.o....oo.o......                         ",
"                       OOO  ooo....oo.o..o..oo..oo......                        ",
"                           ooooo.....oo..o.oo...oo......                        ",
"                       $@@oX...o......o..o.......ooooo..                        ",
"                       $@@$.....o.....o..o......oooo..o..                       ",
"                       $@@@%%...o........o.....oo..oo....                       ",
"                        &&%oo...o.o..........ooo....o....                       ",
"                          .oo...o.o.........o.......o....                       ",
"                          .oo......o.o.....o............o                       ",
"                          .oo.....oo.o....&&&&%o.......oo                       ",
"                          .oo.....oo.o...@@@@&%o......ooo                       ",
"                          .oo..o..o.oo..*&@@@*=o.....oooo                       ",
"                          .o...o..o.o...*.$&$o=o....oooo                        ",
"                          .o..oo.....ooo*..ooo=o....oooo                        ",
"                          .o..ooo....o...*.oo=oo...ooooo                        ",
"                           o..ooo..o.o.o..**=ooo..ooooo                         ",
"                           .o.oooooo.o.o...*ooo..oooooo                         ",
"                           .o.ooooo....o..-;:oo..oooooo                         ",
"                           .o..oo......o.-;;;:o.oooooo                          ",
"                           .  .ooo....o..->,;:oooooooo                          ",
"                           .  .oooo...o..->,;:oooooooo                          ",
"                           .  .  oo..oo..->,;:oooooooo                          ",
"                           .  .  oo..ooo.-;;;:ooo oooo                          ",
"                           .      o..o.o.o-;:oooo  ooo                          ",
"                           .      o..ooo.o.oooooo   oo                          ",
"                                  oo.o.o.o.oooooo   oo                          ",
"                                  oo.o.o.o.oooo o   oo                          ",
"                                   o...o.o.oo o o   oo                          ",
"                                    o..o. .oo       o                           ",
"                                    oo.o. .oo       o                           ",
"                                     o.o... o      oo                           ",
"                                     ooo... o      o                            ",
"                                      oo  ..                                    ",
"                                           .                                    ",
"                                          .                                     ",
"                                                                                ",
"                                                                                ",
"                                                                                ",
"                                                                                ",
"                                                                                ",
"                                                                                ",
"                                                                                ",
"                                                                                ",
"                                                                                ",
"                                                                                ",
"                                                                                ",
"                                                                                ",
"                                                                                "
};
