/* XPM */
static char *_101179204644566e00ce53c2af257eewE1ZjjgGVwKCVNrE[] = {
/* columns rows colors chars-per-pixel */
"80 80 17 1 ",
"  c #3A4041",
". c #6D1823",
"X c #190F20",
"o c #EFECEC",
"O c #F7F6F7",
"+ c #D64F5D",
"@ c #CEB7B9",
"# c #5B5168",
"$ c #C9B8BD",
"% c #0C3F0F",
"& c #63AD45",
"* c #0F5314",
"= c #116116",
"- c #7EC262",
"; c #85BF13",
": c #67940F",
"> c white",
/* pixels */
"                                                                                ",
"                                                                                ",
"                                                                                ",
"                                                                                ",
"                                                                                ",
"                                                                                ",
"                                                                                ",
"                                                                                ",
"                                                                                ",
"                                                                                ",
"                                                                                ",
"                                                                                ",
"                                         ........                               ",
"                                        ..........                              ",
"                                       ......XXXX..                             ",
"                                      .........XXX..                            ",
"                                     ...........XXX..                           ",
"                                     .X.....X....X...                           ",
"                                     .X.....XX..XX  .                           ",
"                                     .XX...XXX.XXX  .                           ",
"                                     .XXXXXXXX..XXX .                           ",
"                                     .XXXXXXXX...XX .                           ",
"                                    ..XXXXXXXX...XXX                            ",
"                                    .XXooXooXXX...XX                            ",
"                                    .XXXXXXXXXXX..XXX                           ",
"                                    .XXXXXXXXXXX..XXX                           ",
"                                    .XXXXXXXXXXX..XXX                           ",
"                                   ...XXXXXXXXX...XXXX                          ",
"                                   ...XXXXXXXX...XXXXX                          ",
"                                  X....XXXXXX....XX..XX                         ",
"                                 .XX....XXXX....XXX....                         ",
"                                ...XX...XXX....XXX......                        ",
"                          O    X+...XX..X.X....XX........                       ",
"                              XXX....XX.X..X..XX..X......                       ",
"                             XXXXX.....XXX.X.XX...XX......                      ",
"                         @o@X+...X........X.X.....XX......                      ",
"                         @oo@.....X.......X..X.....XXXXX..                      ",
"                         @ooo##...X...............XXXX..X..                     ",
"                          $$#XX...X.X............XX..XX....                     ",
"                            .XX...X.X..........XXX....X....                     ",
"                            .XX...X.XX........X.......X....                     ",
"                            .XX......X.X.....X............X                     ",
"                            .XX..X..XX.X....$$$$#X.......XX                     ",
"                            .XX..X..XX.X...oooo$#X......XXX                     ",
"                            .XX..X..X.XX..%$ooo%&X.....XXXX                     ",
"                            .XX.XX....X...%.@$@X&X....XXXX                      ",
"                            .XX.XX..X.X.XX%..XXX&X....XXXX                      ",
"                             XX.XXXXX.X.XX.%.XX&XX...XXXXX                      ",
"                             .X.XXXX....XX..%%&XXX..XXXXX                       ",
"                             .X.XX......XX...%XXX..XXXXXX                       ",
"                             .X..XX....X.X..*=-XX..XXXXXX                       ",
"                             .  .XXX...X.X.*===-X.XXXXXX                        ",
"                             . .. XX..XX.X.*;:=-XXXXXXXX                        ",
"                            ..    XX..XXXX.*;:=-XXXXXXXX                        ",
"                                   X..X.XX.*;:=-XXXXXXXX                        ",
"                                   X..XXXX.*===-XXX XXXX                        ",
"                                   XX.X.XX.X*=-XXXX  XXX                        ",
"                                   XX.X.XX.X.XXXXXX   XX                        ",
"                                    X...XX.X.XXXXXX   XX                        ",
"                                     X..XX.X.XXXX X   XX                        ",
"                                     XX.XX.X.XX X X   XX                        ",
"                                      X.XX. .XX       X                         ",
"                                      XXXX. .XX       X                         ",
"                                       XXX... X      XX                         ",
"                                         XX.. X      X                          ",
"                                            ..                                  ",
"                                             .                                  ",
"                                            .                                   ",
"                                                                                ",
"                                                                                ",
"                                                                                ",
"                                                                                ",
"                                                                                ",
"                                                                                ",
"                                                                                ",
"                                                                                ",
"                                                                                ",
"                                                                                ",
"                                                                                ",
"                                                                                "
};
