/* XPM */
static char *e864f576e8164624ac7001db2c66a2a87qU5AE2ifKhwbGMr[] = {
/* columns rows colors chars-per-pixel */
"80 80 15 1 ",
"  c #3A4041",
". c #6D1823",
"X c #190F20",
"o c #EFECEC",
"O c #5B5168",
"+ c #C9B8BD",
"@ c #0C3F0F",
"# c #63AD45",
"$ c #CEB7B9",
"% c #0F5314",
"& c #116116",
"* c #7EC262",
"= c #85BF13",
"- c #67940F",
"; c white",
/* pixels */
"                                                                                ",
"                                                                                ",
"                                                                                ",
"                                                                                ",
"                                                                                ",
"                                                                                ",
"                                                                                ",
"                                                                                ",
"                                                                                ",
"                                                                                ",
"                                                                                ",
"                                      ........                                  ",
"                                     ..........                                 ",
"                                    ......XXXX..                                ",
"                                   .........XXX..                               ",
"                                  ...........XXX..                              ",
"                                  .X.....X....X  .                              ",
"                                  .X.....XX..XX   .                             ",
"                                  .XX...XXX.XXX    .                            ",
"                                  .XXXXXXXX..XXX                                ",
"                                  .XXXXXXXX...XX                                ",
"                                 ..XXXXXXXX...XXX                               ",
"                                 .XXooXooXXX...XX                               ",
"                                 .XXXXXXXXXXX..XXX                              ",
"                                 .XXXXXXXXXXX..XXX                              ",
"                                ..XXXXXXXXXXX..XXX                              ",
"                               XX..XXXXXXXXX...XXXX                             ",
"                              ..X..XXXXXXXX...XXXXX                             ",
"                             X..X...XXXXXX....XXX..                             ",
"                             ...XX...XXXX....XXX....                            ",
"                            X....XX..XXX....XXX.....                            ",
"                            ......XX.X.X....XX.......                           ",
"                           X.......X.X..X..XX..X.....                           ",
"                          XX........XXX.X.XX...X......                          ",
"                          XXXX.........X.X.....XX......                         ",
"                        XXX...X.........X.X....XXXXX...                         ",
"                        X.....................XXXX..X..                         ",
"                        X........X...........XXX.XX.X..                         ",
"                        ...XXXX..X..........XXX...X.....                        ",
"                        ......X..XX........X.......X....                        ",
"                        .XOOOO.X..X.......X............X                        ",
"                        .X++++X...X......XXXXXX.......XX                        ",
"                        .XoooXXX..X.XX...++++OX......XXX                        ",
"                        .XXXXXXX...X....oooo+OX.....XXXX                        ",
"                        .XXXXXX...XX...@+ooo@#X....XXXX                         ",
"                        ..XXXX...XXX.XX@+$+$X#X....XXXX                         ",
"                         .XXX...XXXX.XX@..XXX#X...XXXXX                         ",
"                         .XX.XXXX..X.XX.@.XX#XX..XXXXXX                         ",
"                         .XX.X..X..X.XX..@@#XX..XXXXXXX                         ",
"                         .XX.X..X.XXX.X...@XXX..XXXXXX                          ",
"                          .X XX.X..X..X..%&*XX.XXXXXXX                          ",
"                          .X  X....X..X.%&&&*XXXXXXXX                           ",
"                          .X  X.X..X.XX.%=-&*XXXXXXXX                           ",
"                          .X  X.X..X.XX.%=-&*XXXXXXXX                           ",
"                           .. X.X..X.XX.%=-&*XXXXXXXX                           ",
"                             XXXXX.X.XX.%&&&*XXX XXXX                           ",
"                             X XXX.X.XX.X%&*XXXX  XXX                           ",
"                            X  X X...XX.X.XXXXXXX  XXX                          ",
"                               X XX..XX.X.XXXX   X XXXX                         ",
"                                 XXX.XX.X.XX XX      XXX                        ",
"                                 X X.XX. .XX   X       XX                       ",
"                                 X XXXX. .XX            XX                      ",
"                                    XXX... X                                    ",
"                                      XX.. X                                    ",
"                                         ..                                     ",
"                                          .                                     ",
"                                         .                                      ",
"                                                                                ",
"                                                                                ",
"                                                                                ",
"                                                                                ",
"                                                                                ",
"                                                                                ",
"                                                                                ",
"                                                                                ",
"                                                                                ",
"                                                                                ",
"                                                                                ",
"                                                                                ",
"                                                                                "
};
