/* XPM */
static char *_6efb0f489174d3dec91564db540c758YglItT9yQDGWXPt9[] = {
/* columns rows colors chars-per-pixel */
"80 80 19 1 ",
"  c #3A4041",
". c #D64F5D",
"X c #6D1823",
"o c #C2360F",
"O c #190F20",
"+ c #D48A19",
"@ c #EFECEC",
"# c #F8F8F8",
"$ c #CEB7B9",
"% c #5B5168",
"& c #C9B8BD",
"* c #0C3F0F",
"= c #63AD45",
"- c #0F5314",
"; c #116116",
": c #7EC262",
"> c #85BF13",
", c #67940F",
"< c white",
/* pixels */
"                                                                                ",
"                                                                                ",
"                                                                                ",
"                                                                                ",
"                                                                                ",
"                                                                                ",
"                                                                                ",
"                                                                                ",
"                                                                                ",
"                                                                                ",
"                                                                                ",
"                                                                                ",
"                                                                                ",
"                                         ..XXXXXX                               ",
"                        o               ..XXXXXXXX                              ",
"                                       .XXXXXOOOOXX                             ",
"                        +             .XXXXXXXXOOOXX                            ",
"                                     ...XXXXXXXXOOOXX                           ",
"                                     .O.XXXXOXXXXOXXX                           ",
"                                     .O.XXXXOOXXOO  X                           ",
"                                     .OO.XXOOOXOOO  X                           ",
"                                     .OOOOOOOOXXOOO X                           ",
"                           o         .OOOOOOOOXXXOO X                           ",
"                           +        ..OOOOOOOOXXXOOO                            ",
"                                    .OO@@O@@OOOXXXOO                            ",
"                                    .OOOOOOOOOOOXXOOO                           ",
"                          o         .OOOOOOOOOOOXXOOO                           ",
"                         o          .OOOOOOOOOOOXXOOO                           ",
"                          oo       ..XOOOOOOOOOXXXOOOO                          ",
"                         o++o      .XXOOOOOOOOXXXOOOOO                          ",
"                         ++#o     O.XXXOOOOOOXXXXOOXXOO                         ",
"                        o+#+o    .OO.XXXOOOOXXXXOOOXXXX                         ",
"                        oo#+o   ...OOXXXOOOXXXXOOOXXXXXX                        ",
"                         ooo   O..XXOOXXOXOXXXXOOXXXXXXXX                       ",
"                              OOO.XXXOOXOXXOXXOOXXOXXXXXX                       ",
"                             OOOOOXXXXXOOXXOXOOXXXOOXXXXXX                      ",
"                         @@$O..XXOXXXXXXOXXOXXXXXXOOXXXXXX                      ",
"                         $@@$.XXXXOXXXXXOXXOXXXXXXXOOOOOXX                      ",
"                         $@@@%%XXXOXXXXXXXXOXXXXXXOOOOXXOXX                     ",
"                          &&%OOXXXOXOXXXXXXXXXXXXOOXXOOXXXX                     ",
"                            XOOXXXOXOXXXXXXXXXXOOOXXXXOXXXX                     ",
"                            XOOXXXXXXOXOXXXXXXOXXXXXXXOXXXX                     ",
"                            XOOXXXXXOOXOXXXXXOXXXXXXXXXXXXO                     ",
"                            XOOXXOXXOOXOXXXX&&&&%OXXXXXXXOO                     ",
"                            XOOXXOXXOXOOXXX@@@@&%OXXXXXXOOO                     ",
"                            XOXXXOXXOXOXXX*&@@@*=OXXXXXOOOO                     ",
"                            XOXXOOXXXXXOOO*X$&$O=OXXXXOOOO                      ",
"                            XOXXOOOXXXXOXX*XXOOO=OXXXXOOOO                      ",
"                             OXXOOOXXOXOXOX*XOO=OOXXXOOOOO                      ",
"                             XOXOOOOOOXOXOXX**=OOOXXOOOOO                       ",
"                             XOXOOOOOXXXXOXXX*OOOXXOOOOOO                       ",
"                             XOXXOOXXXXXXOXX-;:OOXXOOOOOO                       ",
"                             X  XOOOXXXXOXX-;;;:OXOOOOOO                        ",
"                             X  X OOOXXXOXX->,;:OOOOOOOO                        ",
"                             X  X  OOXXOOXX->,;:OOOOOOOO                        ",
"                             X  X  OOXXOOOX->,;:OOOOOOOO                        ",
"                             X  X   OXXOXOX-;;;:OOO OOOO                        ",
"                             X      OXXOOOXO-;:OOOO  OOO                        ",
"                             X      OOXOXOXOXOOOOOO   OO                        ",
"                                    OOXOXOXOXOOOOOO   OO                        ",
"                                     OXXXOXOXOOOO O   OO                        ",
"                                      OXXOXOXOO O O   OO                        ",
"                                      OOXOX XOO       O                         ",
"                                       OXOX XOO       O                         ",
"                                       OOOXXX O      OO                         ",
"                                        OOOXX O      O                          ",
"                                            XX                                  ",
"                                             X                                  ",
"                                            X                                   ",
"                                                                                ",
"                                                                                ",
"                                                                                ",
"                                                                                ",
"                                                                                ",
"                                                                                ",
"                                                                                ",
"                                                                                ",
"                                                                                ",
"                                                                                ",
"                                                                                "
};
