/* XPM */
static char *result[] = {
/* columns rows colors chars-per-pixel */
"80 80 19 1 ",
"  c #3A4041",
". c #D64F5D",
"X c #6D1823",
"o c #190F20",
"O c #D48A19",
"+ c #C2360F",
"@ c #EFECEC",
"# c #F8F8F8",
"$ c #CEB7B9",
"% c #5B5168",
"& c #C9B8BD",
"* c #0C3F0F",
"= c #63AD45",
"- c #0F5314",
"; c #116116",
": c #7EC262",
"> c #85BF13",
", c #67940F",
"< c white",
/* pixels */
"                                                                                ",
"                                                                                ",
"                                                                                ",
"                                                                                ",
"                                                                                ",
"                                                                                ",
"                                                                                ",
"                                                                                ",
"                                                                                ",
"                                                                                ",
"                                                                                ",
"                                                                                ",
"                                  .XXXXXXX                                      ",
"                                 .XXXXXXXXX                                     ",
"                                .XXXXXooooXX                                    ",
"                    O          ..XXXXXXXoooXX                                   ",
"                              ..XXXXXXXXXoooXX                                  ",
"                   +          .o.XXXXoXXXXoXXX                                  ",
"                              .o.XXXXooXXoo  X                                  ",
"                              .oo..XoooXooo  X                                  ",
"                  O           .ooooooooXXooo X                                  ",
"                   +          .ooooooooXXXoo X                                  ",
"                             ..ooooooooXXXooo                                   ",
"                             .oo@@o@@oooXXXoo                                   ",
"                             .oooooooooooXXooo                                  ",
"                             .oooooooooooXXooo                                  ",
"                             .oooooooooooXXooo                                  ",
"                  +O        ..XoooooooooXXXoooo                                 ",
"                   O+       .XXooooooooXXXooooo                                 ",
"                  ++O+     o.XXXooooooXXXXooXXoo                                ",
"                  +O#O    .oo..XXooooXXXXoooXXXX                                ",
"                 ++O#O   .XXoo.XXoooXXXXoooXXXXXX                               ",
"                 ++#O+  o.XXXooXXoXoXXXXooXXXXXXXX                              ",
"                  +++  ooo.XXXooXoXXoXXooXXoXXXXXX                              ",
"                      ooooo.XXXXooXXoXooXXXooXXXXXX                             ",
"                  $$@o.XXXoXXXXXXoXXoXXXXXXooXXXXXX                             ",
"                  $@@$..XXXoXXXXXoXXoXXXXXXXoooooXX                             ",
"                  $@@@%%.XXoXXXXXXXXoXXXXXXooooXXoXX                            ",
"                   &&%ooXXXoXoXXXXXXXXXXXXooXXooXXXX                            ",
"                     XooXXXoXoXXXXXXXXXXoooXXXXoXXXX                            ",
"                     XooXXXoXooXXXXXXXXoXXXXXXXoXXXX                            ",
"                     XooXXXXXXoXoXXXXXoXXXXXXXXXXXXo                            ",
"                     XooXXoXXooXoXXXX&&&&%oXXXXXXXoo                            ",
"                     XooXXoXXooXoXXX@@@@&%oXXXXXXooo                            ",
"                     XoXXXoXXoXooXX*&@@@*=oXXXXXoooo                            ",
"                     XoXXooXXXXoXXX*X$&$o=oXXXXoooo                             ",
"                     XoXXooXXXXoXoo*XXooo=oXXXXoooo                             ",
"                      oXXoooXXXXoXXX*Xoo=ooXXXooooo                             ",
"                      XoXoooXXoXoXoXX**=oooXXooooo                              ",
"                      XoXooooooXoXoXXX*oooXXoooooo                              ",
"                      XoXXooooXXXXoXX-;:ooXXoooooo                              ",
"                      X  XooXXXXXXoX-;;;:oXoooooo                               ",
"                      X  X ooXXXXoXX->,;:oooooooo                               ",
"                      X  X oooXXXoXX->,;:oooooooo                               ",
"                      X  X  ooXXooXX->,;:oooooooo                               ",
"                      X  X  ooXXoooX-;;;:ooo oooo                               ",
"                      X      oXXoXoXo-;:oooo  ooo                               ",
"                      X      oXXoooXoXoooooo   oo                               ",
"                             ooXoXoXoXoooooo   oo                               ",
"                             ooXoXoXoXoooo o   oo                               ",
"                              oXXXoXoXoo o o   oo                               ",
"                               oXXoX Xoo       o                                ",
"                               ooXoX Xoo       o                                ",
"                                oXoXXX o      oo                                ",
"                                ooooXX o      o                                 ",
"                                 oo  XX                                         ",
"                                      X                                         ",
"                                     X                                          ",
"                                                                                ",
"                                                                                ",
"                                                                                ",
"                                                                                ",
"                                                                                ",
"                                                                                ",
"                                                                                ",
"                                                                                ",
"                                                                                ",
"                                                                                ",
"                                                                                ",
"                                                                                "
};
