/* XPM */
static char *dafbef724a304779d23c311e882ce679NualAkfkUJMFb9q9[] = {
/* columns rows colors chars-per-pixel */
"80 80 15 1 ",
"  c #3A4041",
". c #6D1823",
"X c #190F20",
"o c #EFECEC",
"O c #C9B8BD",
"+ c #5B5168",
"@ c #0C3F0F",
"# c #63AD45",
"$ c #CEB7B9",
"% c #0F5314",
"& c #116116",
"* c #7EC262",
"= c #85BF13",
"- c #67940F",
"; c white",
/* pixels */
"                                                                                ",
"                                                                                ",
"                                                                                ",
"                                                                                ",
"                                                                                ",
"                                                                                ",
"                                                                                ",
"                                                                                ",
"                                                                                ",
"                                                                                ",
"                                                                                ",
"                                                                                ",
"                                  ........                                      ",
"                                 ..........                                     ",
"                                ......XXXX..                                    ",
"                               .........XXX..                                   ",
"                              ...........XXX..                                  ",
"                              .X.....X....X ..                                  ",
"                              .X.....XX..XX  .                                  ",
"                              .XX...XXX.XXX  .                                  ",
"                              .XXXXXXXX..XXX .                                  ",
"                              .XXXXXXXX...XX                                    ",
"                             ..XXXXXXXX...XXX                                   ",
"                             .XXooXooXXX...XX                                   ",
"                             .XXXXXXXXXXX..XXX                                  ",
"                             .XXXXXXXXXXX..XXX                                  ",
"                             .XXXXXXXXXXX..XXX                                  ",
"                            ...XXXXXXXXX...XXX                                  ",
"                          XX...XXXXXXXX...XXXX                                  ",
"                         ..XX...XXXXXX....XXX..                                 ",
"                         ...X....XXXX....XXX....                                ",
"                        ....XX...XXX....XXX.....                                ",
"                        .....XX..X.X....XX.......                               ",
"                       .......XX.X..X..XX..X.....                               ",
"                       ...X.....XX..X.XX...X......                              ",
"                      .....X.....X..X......XX.....                              ",
"                     X.....X.....X...X.....XXXXXX..                             ",
"                     ......X..............XXX....X.                             ",
"                     .....XX.X...........XXXXXX....                             ",
"                    X...XXXX.X..........XXX...XX...                             ",
"                    X..XX..X.XX..X.....X.......X...                             ",
"                    ...X.XX...X..X....X........X...                             ",
"                    X....XXX.XX..X...XXXXXX.......X                             ",
"                    XX..XXXXXXX..X...OOOO+X......XX                             ",
"                    XX..XXXOXX.XX...ooooO+X.....XXX                             ",
"                     X.XXXO....X...@Oooo@#X....XXXX                             ",
"                     X.XXO..X..X.XX@O$O$X#X....XXXX                             ",
"                     XXXX..X...X.XX@..XXX#X...XXXXXX                            ",
"                       X..X....X.XX.@.XX#XX..XXXXXX                             ",
"                       XXX...XXX.XX..@@#XX..XXXXXXX                             ",
"                        XX..X.XXX.X..X@XXX..XXXXXXX                             ",
"                         X.XXX.XX.X..%&*XX.XXXXXXXX                             ",
"                         XX..X.XX.X.%&&&*XXXXXXXXXX                             ",
"                          X..X.XXXX.%=-&*XXXXXXXXXX                             ",
"                          X....X.XX.%=-&*XXXXXXXXXX                             ",
"                          X.X...XXX.%=-&*XXXX XXXX                              ",
"                          XXXX...XX.%&&&*XXX  XXXX                              ",
"                           XXX...XX.X%&*XXXXX  XXX                              ",
"                           X X...XX.XX.XXXX X  XXX                              ",
"                          X  XX..XX.XX.XXXX X  XXX                              ",
"                             XXX.XX.XX.X  X     XX                              ",
"                             X X.XX.  .X  X     X                               ",
"                            X  XXXX.  .X  X    XX                               ",
"                              XXXXX.. .X      XX                                ",
"                                 XXX.. .X    XX                                 ",
"                                        .                                       ",
"                                                                                ",
"                                                                                ",
"                                                                                ",
"                                                                                ",
"                                                                                ",
"                                                                                ",
"                                                                                ",
"                                                                                ",
"                                                                                ",
"                                                                                ",
"                                                                                ",
"                                                                                ",
"                                                                                ",
"                                                                                "
};
