/* XPM */
static char *_e9c2a0f8e024bd3fe1fa4bc9dfb6063tzE458BkUmYDxX6T[] = {
/* columns rows colors chars-per-pixel */
"80 80 15 1 ",
"  c #3A4041",
". c #6D1823",
"X c #190F20",
"o c #EFECEC",
"O c #C9B8BD",
"+ c #5B5168",
"@ c #0C3F0F",
"# c #63AD45",
"$ c #CEB7B9",
"% c #0F5314",
"& c #116116",
"* c #7EC262",
"= c #85BF13",
"- c #67940F",
"; c white",
/* pixels */
"                                                                                ",
"                                                                                ",
"                                                                                ",
"                                                                                ",
"                                                                                ",
"                                                                                ",
"                                                                                ",
"                                                                                ",
"                                                                                ",
"                                                                                ",
"                                                                                ",
"                                                                                ",
"                                                                                ",
"                                  ........                                      ",
"                                 ..........                                     ",
"                                ......XXXX..                                    ",
"                               .........XXX..                                   ",
"                              ...........XXX.                                   ",
"                              .X.....X....X..                                   ",
"                              .X.....XX..XX .                                   ",
"                              .XX...XXX.XXX .                                   ",
"                              .XXXXXXXX..XXX.                                   ",
"                              .XXXXXXXX...XX.                                   ",
"                             ..XXXXXXXX...XXX                                   ",
"                             .XXooXooXXX...XX                                   ",
"                             .XXXXXXXXXXX..XXX                                  ",
"                             .XXXXXXXXXXX..XXX                                  ",
"                             .XXXXXXXXXXX..XXX                                  ",
"                            ...XXXXXXXXX...XXXX                                 ",
"                            ...XXXXXXXX...XXXXX                                 ",
"                            ....XXXXXX....XXX...                                ",
"                           XX....XXXX....XXX....                                ",
"                          ..XX...XXX....XXX......                               ",
"                          ...XX..X.X....XX........                              ",
"                         .....XX.X..X..XX..X......                              ",
"                         .......XX..X.XX...X.......                             ",
"                        ........XX..X......XX......                             ",
"                       ....X...X....X......XXXXXX..                             ",
"                       ....X........X.....XXXXX..X..                            ",
"                      .....X.X...........XXX..XX....                            ",
"                      .....X.X..........XXX....X....                            ",
"                      .....X.XX........X.......X....                            ",
"                      ........X.X.....X............X                            ",
"                      ....XXXXX.X....OOOO+X.......XX                            ",
"                       ..X...XX.X...ooooO+X......XXX                            ",
"                       .X.XXXX.XX..@Oooo@#X.....XXXX                            ",
"                       ..XX....X...@O$O$X#X....XXXX                             ",
"                       .XX...X.X.XX@..XXX#X....XXXX                             ",
"                        X....XXX.XX.@.XX#XX...XXXXX                             ",
"                       X.....XXX.XX..@@#XXX..XXXXX                              ",
"                       X......XX.XX...@XXX..XXXXXX                              ",
"                        X...X.XXX.X..%&*XX..XXXXXX                              ",
"                         X.XX..XX.X.%&&&*X.XXXXXX                               ",
"                          ..X..XX.X.%=-&*XXXXXXXX                               ",
"                          ..X..XXXX.%=-&*XXXXXXXX                               ",
"                          ..X..X.XX.%=-&*XXXXXXXX                               ",
"                           .X..XXXX.%&&&*XXX XXXX                               ",
"                            XX.X.XX.X%&*XXX  XXX                                ",
"                            XX.X.XX.X.XXXXX XXXX                                ",
"                             X...XX.X.XXXXX  XX                                 ",
"                              X..XX.X.XXXXX  XX                                 ",
"                              XX.XX.X.XX X  XX                                  ",
"                               X.XX. .XXX  XX                                   ",
"                               XXXX. .XX   X                                    ",
"                                XXX... X  XX                                    ",
"                                  XX.. X                                        ",
"                                     ..                                         ",
"                                      .                                         ",
"                                     .                                          ",
"                                                                                ",
"                                                                                ",
"                                                                                ",
"                                                                                ",
"                                                                                ",
"                                                                                ",
"                                                                                ",
"                                                                                ",
"                                                                                ",
"                                                                                ",
"                                                                                "
};
