/* XPM */
static char *cd2ca982dc74465da5df16ada83dcd48yiRcrZp5m3ZqBmX4[] = {
/* columns rows colors chars-per-pixel */
"80 80 19 1 ",
"  c #3A4041",
". c #D64F5D",
"X c #6D1823",
"o c #190F20",
"O c #C2360F",
"+ c #D48A19",
"@ c #EFECEC",
"# c #F8F8F8",
"$ c #CEB7B9",
"% c #5B5168",
"& c #C9B8BD",
"* c #0C3F0F",
"= c #63AD45",
"- c #0F5314",
"; c #116116",
": c #7EC262",
"> c #85BF13",
", c #67940F",
"< c white",
/* pixels */
"                                                                                ",
"                                                                                ",
"                                                                                ",
"                                                                                ",
"                                                                                ",
"                                                                                ",
"                                                                                ",
"                                                                                ",
"                                                                                ",
"                                                                                ",
"                                                                                ",
"                                                                                ",
"                                       ..XXXXXX                                 ",
"                                      ..XXXXXXXX                                ",
"                                     ..XXXXooooXX                               ",
"                                    ...XXXXXXoooXX                              ",
"                                   ...XXXXXXXXoooXX                             ",
"                                   .o.XXXXoXXXXoXXX                             ",
"                      O            .o..XXXooXXoo  X                             ",
"                       +           .oo..XoooXooo  X                             ",
"                                   .ooooooooXXooo X                             ",
"                                   .ooooooooXXXoo X                             ",
"                         O        ..ooooooooXXXooo                              ",
"                        +         .oo@@o@@oooXXXoo                              ",
"                                  .oooooooooooXXooo                             ",
"                                  .oooooooooooXXooo                             ",
"                        O         .oooooooooooXXooo                             ",
"                       O         ...oooooooooXXXoooo                            ",
"                        OO       ..XooooooooXXXooooo                            ",
"                       O++O     o..XXooooooXXXXooXXoo                           ",
"                       #+OO    .oo..XXooooXXXXoooXXXX                           ",
"                      O+#OO   ...oo.XXoooXXXXoooXXXXXX                          ",
"                      OO#OO  o.XXXooXXoXoXXXXooXXXXXXXX                         ",
"                       OOO  ooo.XXXooXoXXoXXooXXoXXXXXX                         ",
"                           ooooo.XXXXooXXoXooXXXooXXXXXX                        ",
"                       $@$o..XXoXXXXXXoXXoXXXXXXooXXXXXX                        ",
"                       $@@$...XXoXXXXXoXXoXXXXXXXoooooXX                        ",
"                       $@@@%%.XXoXXXXXXXXoXXXXXXooooXXoXX                       ",
"                        &&%ooXXXoXXXXXXXXXXXXXXooXXooXXXX                       ",
"                          XooXXXoXoXXXXXXXXXXoooXXXXoXXXX                       ",
"                          XooXXXoXooXXXXXXXXoXXXXXXXoXXXX                       ",
"                          XooXXXXXXoXoXXXXXoXXXXXXXXXXXXo                       ",
"                          XooXXoXXooXoXXXX&&&&%oXXXXXXXoo                       ",
"                          XooXXoXXooXoXXX@@@@&%oXXXXXXooo                       ",
"                          XoXXXoXXoXooXX*&@@@*=oXXXXXoooo                       ",
"                          XoXXooXXoXoXXX*X$&$o=oXXXXoooo                        ",
"                          XoXXooXXXXoXoo*XXooo=oXXXXoooo                        ",
"                           oXXoooXXXXoXXX*Xoo=ooXXXooooo                        ",
"                           XoXoooXXoXoXoXX**=oooXXooooo                         ",
"                           XoXooooooXoXoXXX*oooXXoooooo                         ",
"                           XoXXooooXXXXoXX-;:ooXXoooooo                         ",
"                           X  XooXXXXXXoX-;;;:oXoooooo                          ",
"                           X  X ooXXXXoXX->,;:oooooooo                          ",
"                           X  X oooXXXoXX->,;:oooooooo                          ",
"                           X  X  ooXXooXX->,;:oooooooo                          ",
"                           X  X  ooXXoooX-;;;:ooo oooo                          ",
"                           X      oXXoXoXo-;:oooo  ooo                          ",
"                           X      oXXoooXoXoooooo   oo                          ",
"                                  ooXoXoXoXoooooo   oo                          ",
"                                  ooXoXoXoXoooo o   oo                          ",
"                                   oXXXoXoXoo o o   oo                          ",
"                                    oXXoX Xoo       o                           ",
"                                    ooXoX Xoo       o                           ",
"                                     oXoXXX o      oo                           ",
"                                     ooooXX o      o                            ",
"                                      oo  XX                                    ",
"                                           X                                    ",
"                                          X                                     ",
"                                                                                ",
"                                                                                ",
"                                                                                ",
"                                                                                ",
"                                                                                ",
"                                                                                ",
"                                                                                ",
"                                                                                ",
"                                                                                ",
"                                                                                ",
"                                                                                ",
"                                                                                "
};
