/* XPM */
static char *_c6b31579c8449019e6271af14560e2cdbbVJT8jhTvpADQt[] = {
/* columns rows colors chars-per-pixel */
"80 80 19 1 ",
"  c #3A4041",
". c #6D1823",
"X c #190F20",
"o c #C2360F",
"O c #D48A19",
"+ c #D64F5D",
"@ c #EFECEC",
"# c #F8F8F8",
"$ c #CEB7B9",
"% c #5B5168",
"& c #C9B8BD",
"* c #0C3F0F",
"= c #63AD45",
"- c #0F5314",
"; c #116116",
": c #7EC262",
"> c #85BF13",
", c #67940F",
"< c white",
/* pixels */
"                                                                                ",
"                                                                                ",
"                                                                                ",
"                                                                                ",
"                                                                                ",
"                                                                                ",
"                                                                                ",
"                                                                                ",
"                                                                                ",
"                                                                                ",
"                                                                                ",
"                                                                                ",
"                                       ........                                 ",
"                                      ..........                                ",
"                                     ......XXXX..                               ",
"                                    .........XXX..                              ",
"                                   ...........XXX..                             ",
"                                   .X.....X....X...                             ",
"                                   .X.....XX..XX  .                             ",
"                                   .XX...XXX.XXX  .                             ",
"                                   .XXXXXXXX..XXX .                             ",
"                        o          .XXXXXXXX...XX .                             ",
"                        O         +.XXXXXXXX...XXX                              ",
"                                  .XX@@X@@XXX...XX                              ",
"                                  .XXXXXXXXXXX..XXX                             ",
"                         o        .XXXXXXXXXXX..XXX                             ",
"                                  .XXXXXXXXXXX..XXX                             ",
"                        O        +..XXXXXXXXX...XXXX                            ",
"                         o       +..XXXXXXXX...XXXXX                            ",
"                        o       X....XXXXXX....XX..XX                           ",
"                       oO      +XX....XXXX....XXX....                           ",
"                       O#O    +..XX...XXX....XXX......                          ",
"                       O#O   X....XX..X.X....XX........                         ",
"                            XXX....XX.X..X..XX..X......                         ",
"                           XXXXX.....XX..X.XX...XX......                        ",
"                       $@$X+...X......X..X......XX......                        ",
"                       $@@$.....X.....X..X.......XXXXX..                        ",
"                       $@@@%%...X........X......XXXX..X..                       ",
"                        &&%XX...X.X............XX..XX....                       ",
"                          .XX...X.X..........XXX....X....                       ",
"                          .XX...X.XX........X.......X....                       ",
"                          .XX......X.X.....X............X                       ",
"                          .XX..X..XX.X....&&&&%X.......XX                       ",
"                          .XX..X..XX.X...@@@@&%X......XXX                       ",
"                          .X...X..X.XX..*&@@@*=X.....XXXX                       ",
"                          .X..XX..X.X...*.$&$X=X....XXXX                        ",
"                          .X..XX.....XXX*..XXX=X....XXXX                        ",
"                           X..XXX....X...*.XX=XX...XXXXX                        ",
"                           .X.XXX..X.X.X..**=XXX..XXXXX                         ",
"                           .X.XXXXXX.X.X...*XXX..XXXXXX                         ",
"                           .X..XXXX....X..-;:XX..XXXXXX                         ",
"                           .  .XX......X.-;;;:X.XXXXXX                          ",
"                           .  . XX....X..->,;:XXXXXXXX                          ",
"                           .  . XXX...X..->,;:XXXXXXXX                          ",
"                           . .   XX..XX..->,;:XXXXXXXX                          ",
"                          .      XX..XXX.-;;;:XXX XXXX                          ",
"                                  X..X.X.X-;:XXXX  XXX                          ",
"                                  X..XXX.X.XXXXXX   XX                          ",
"                                  XX.X.X.X.XXXXXX   XX                          ",
"                                  XX.X.X.X.XXXX X   XX                          ",
"                                   X...X.X.XX X X   XX                          ",
"                                    X..X. .XX       X                           ",
"                                    XX.X. .XX       X                           ",
"                                     X.X... X      XX                           ",
"                                     XXXX.. X      X                            ",
"                                      XX  ..                                    ",
"                                           .                                    ",
"                                          .                                     ",
"                                                                                ",
"                                                                                ",
"                                                                                ",
"                                                                                ",
"                                                                                ",
"                                                                                ",
"                                                                                ",
"                                                                                ",
"                                                                                ",
"                                                                                ",
"                                                                                ",
"                                                                                "
};
